<mxfile host="Electron" modified="2023-04-23T15:34:31.824Z" agent="Mozilla/5.0 (Windows NT 10.0; Win64; x64) AppleWebKit/537.36 (KHTML, like Gecko) draw.io/21.2.1 Chrome/112.0.5615.87 Electron/24.1.2 Safari/537.36" etag="2279upLdeBLL3KzEdoLo" version="21.2.1" type="device">
  <diagram name="Page-1" id="s9zepBRNgx5n85GzN3i-">
    <mxGraphModel dx="2026" dy="819" grid="1" gridSize="10" guides="1" tooltips="1" connect="1" arrows="1" fold="1" page="1" pageScale="1" pageWidth="1654" pageHeight="1169" math="0" shadow="0">
      <root>
        <mxCell id="0" />
        <mxCell id="1" parent="0" />
        <mxCell id="kR4UCeC7xbuXBF_9jbmj-24" value="" style="rounded=1;whiteSpace=wrap;html=1;fillColor=#f5f5f5;fontColor=#333333;strokeColor=#666666;glass=0;shadow=0;" parent="1" vertex="1">
          <mxGeometry x="710" y="1260" width="290" height="220" as="geometry" />
        </mxCell>
        <mxCell id="kR4UCeC7xbuXBF_9jbmj-12" style="edgeStyle=orthogonalEdgeStyle;rounded=0;orthogonalLoop=1;jettySize=auto;html=1;dashed=1;endArrow=open;endFill=0;" parent="1" source="kR4UCeC7xbuXBF_9jbmj-1" target="kR4UCeC7xbuXBF_9jbmj-2" edge="1">
          <mxGeometry relative="1" as="geometry" />
        </mxCell>
        <mxCell id="kR4UCeC7xbuXBF_9jbmj-1" value="OTSystem" style="shape=folder;fontStyle=1;spacingTop=10;tabWidth=40;tabHeight=14;tabPosition=left;html=1;whiteSpace=wrap;shadow=1;" parent="1" vertex="1">
          <mxGeometry x="40" y="40" width="160" height="40" as="geometry" />
        </mxCell>
        <mxCell id="kR4UCeC7xbuXBF_9jbmj-7" style="edgeStyle=orthogonalEdgeStyle;rounded=1;orthogonalLoop=1;jettySize=auto;html=1;dashed=1;endArrow=open;endFill=0;" parent="1" source="kR4UCeC7xbuXBF_9jbmj-2" target="kR4UCeC7xbuXBF_9jbmj-3" edge="1">
          <mxGeometry relative="1" as="geometry">
            <Array as="points">
              <mxPoint x="420" y="60" />
              <mxPoint x="420" y="120" />
              <mxPoint x="120" y="120" />
            </Array>
          </mxGeometry>
        </mxCell>
        <mxCell id="Lh5F1gDXbCP13nxI149C-12" style="edgeStyle=orthogonalEdgeStyle;rounded=1;orthogonalLoop=1;jettySize=auto;html=1;dashed=1;endArrow=open;endFill=0;" edge="1" parent="1" source="kR4UCeC7xbuXBF_9jbmj-2" target="Lh5F1gDXbCP13nxI149C-9">
          <mxGeometry relative="1" as="geometry">
            <Array as="points">
              <mxPoint x="420" y="60" />
              <mxPoint x="420" y="120" />
              <mxPoint x="320" y="120" />
            </Array>
          </mxGeometry>
        </mxCell>
        <mxCell id="Lh5F1gDXbCP13nxI149C-14" style="edgeStyle=orthogonalEdgeStyle;rounded=0;orthogonalLoop=1;jettySize=auto;html=1;dashed=1;endArrow=open;endFill=0;" edge="1" parent="1" source="kR4UCeC7xbuXBF_9jbmj-2" target="kR4UCeC7xbuXBF_9jbmj-26">
          <mxGeometry relative="1" as="geometry" />
        </mxCell>
        <mxCell id="Lh5F1gDXbCP13nxI149C-16" style="edgeStyle=orthogonalEdgeStyle;rounded=1;orthogonalLoop=1;jettySize=auto;html=1;dashed=1;endArrow=open;endFill=0;" edge="1" parent="1" source="kR4UCeC7xbuXBF_9jbmj-2" target="kR4UCeC7xbuXBF_9jbmj-14">
          <mxGeometry relative="1" as="geometry">
            <Array as="points">
              <mxPoint x="480" y="60" />
              <mxPoint x="480" y="300" />
            </Array>
          </mxGeometry>
        </mxCell>
        <mxCell id="Lh5F1gDXbCP13nxI149C-17" style="edgeStyle=orthogonalEdgeStyle;rounded=1;orthogonalLoop=1;jettySize=auto;html=1;dashed=1;endArrow=open;endFill=0;" edge="1" parent="1" source="kR4UCeC7xbuXBF_9jbmj-2" target="kR4UCeC7xbuXBF_9jbmj-28">
          <mxGeometry relative="1" as="geometry">
            <Array as="points">
              <mxPoint x="480" y="60" />
              <mxPoint x="480" y="420" />
            </Array>
          </mxGeometry>
        </mxCell>
        <mxCell id="kR4UCeC7xbuXBF_9jbmj-2" value="OTCore" style="shape=folder;fontStyle=1;spacingTop=10;tabWidth=40;tabHeight=14;tabPosition=left;html=1;whiteSpace=wrap;shadow=1;" parent="1" vertex="1">
          <mxGeometry x="240" y="40" width="160" height="40" as="geometry" />
        </mxCell>
        <mxCell id="kR4UCeC7xbuXBF_9jbmj-13" style="edgeStyle=orthogonalEdgeStyle;rounded=0;orthogonalLoop=1;jettySize=auto;html=1;dashed=1;endArrow=open;endFill=0;" parent="1" source="kR4UCeC7xbuXBF_9jbmj-3" target="kR4UCeC7xbuXBF_9jbmj-4" edge="1">
          <mxGeometry relative="1" as="geometry" />
        </mxCell>
        <mxCell id="kR4UCeC7xbuXBF_9jbmj-3" value="OTCommunication" style="shape=folder;fontStyle=1;spacingTop=10;tabWidth=40;tabHeight=14;tabPosition=left;html=1;whiteSpace=wrap;fillColor=#ffcccc;strokeColor=#36393d;shadow=1;" parent="1" vertex="1">
          <mxGeometry x="40" y="160" width="160" height="40" as="geometry" />
        </mxCell>
        <mxCell id="kR4UCeC7xbuXBF_9jbmj-4" value="OTServiceFoundation" style="shape=folder;fontStyle=1;spacingTop=10;tabWidth=40;tabHeight=14;tabPosition=left;html=1;whiteSpace=wrap;fillColor=#ffcccc;strokeColor=#36393d;shadow=1;" parent="1" vertex="1">
          <mxGeometry x="40" y="280" width="160" height="40" as="geometry" />
        </mxCell>
        <mxCell id="kR4UCeC7xbuXBF_9jbmj-17" style="edgeStyle=orthogonalEdgeStyle;rounded=1;orthogonalLoop=1;jettySize=auto;html=1;dashed=1;endArrow=open;endFill=0;" parent="1" source="kR4UCeC7xbuXBF_9jbmj-14" target="kR4UCeC7xbuXBF_9jbmj-15" edge="1">
          <mxGeometry relative="1" as="geometry" />
        </mxCell>
        <mxCell id="kR4UCeC7xbuXBF_9jbmj-14" value="OTBlockEditorAPI" style="shape=folder;fontStyle=1;spacingTop=10;tabWidth=40;tabHeight=14;tabPosition=left;html=1;whiteSpace=wrap;shadow=1;" parent="1" vertex="1">
          <mxGeometry x="560" y="280" width="160" height="40" as="geometry" />
        </mxCell>
        <mxCell id="Lh5F1gDXbCP13nxI149C-21" style="edgeStyle=orthogonalEdgeStyle;rounded=1;orthogonalLoop=1;jettySize=auto;html=1;dashed=1;endArrow=open;endFill=0;" edge="1" parent="1" source="kR4UCeC7xbuXBF_9jbmj-15" target="Lh5F1gDXbCP13nxI149C-19">
          <mxGeometry relative="1" as="geometry">
            <Array as="points">
              <mxPoint x="1000" y="300" />
              <mxPoint x="1000" y="540" />
            </Array>
          </mxGeometry>
        </mxCell>
        <mxCell id="kR4UCeC7xbuXBF_9jbmj-15" value="OTBlockEditor" style="shape=folder;fontStyle=1;spacingTop=10;tabWidth=40;tabHeight=14;tabPosition=left;html=1;whiteSpace=wrap;fillColor=#cce5ff;strokeColor=#36393d;shadow=1;" parent="1" vertex="1">
          <mxGeometry x="800" y="280" width="160" height="40" as="geometry" />
        </mxCell>
        <mxCell id="kR4UCeC7xbuXBF_9jbmj-18" value="" style="rounded=1;whiteSpace=wrap;html=1;" parent="1" vertex="1">
          <mxGeometry x="720" y="1280" width="40" height="20" as="geometry" />
        </mxCell>
        <mxCell id="kR4UCeC7xbuXBF_9jbmj-19" value="" style="rounded=1;whiteSpace=wrap;html=1;fillColor=#ffcccc;strokeColor=#36393d;" parent="1" vertex="1">
          <mxGeometry x="720" y="1320" width="40" height="20" as="geometry" />
        </mxCell>
        <mxCell id="kR4UCeC7xbuXBF_9jbmj-20" value="" style="rounded=1;whiteSpace=wrap;html=1;fillColor=#cce5ff;strokeColor=#36393d;" parent="1" vertex="1">
          <mxGeometry x="720" y="1360" width="40" height="20" as="geometry" />
        </mxCell>
        <mxCell id="kR4UCeC7xbuXBF_9jbmj-21" value="General Packages" style="text;html=1;strokeColor=none;fillColor=none;align=left;verticalAlign=middle;whiteSpace=wrap;rounded=0;" parent="1" vertex="1">
          <mxGeometry x="770" y="1280" width="230" height="20" as="geometry" />
        </mxCell>
        <mxCell id="kR4UCeC7xbuXBF_9jbmj-22" value="Contains (depends on) security features" style="text;html=1;strokeColor=none;fillColor=none;align=left;verticalAlign=middle;whiteSpace=wrap;rounded=0;" parent="1" vertex="1">
          <mxGeometry x="770" y="1320" width="230" height="20" as="geometry" />
        </mxCell>
        <mxCell id="kR4UCeC7xbuXBF_9jbmj-23" value="Contains (depends on) Qt" style="text;html=1;strokeColor=none;fillColor=none;align=left;verticalAlign=middle;whiteSpace=wrap;rounded=0;" parent="1" vertex="1">
          <mxGeometry x="769" y="1360" width="231" height="20" as="geometry" />
        </mxCell>
        <mxCell id="Lh5F1gDXbCP13nxI149C-8" style="edgeStyle=orthogonalEdgeStyle;rounded=0;orthogonalLoop=1;jettySize=auto;html=1;dashed=1;endArrow=open;endFill=0;" edge="1" parent="1" source="kR4UCeC7xbuXBF_9jbmj-25" target="kR4UCeC7xbuXBF_9jbmj-27">
          <mxGeometry relative="1" as="geometry" />
        </mxCell>
        <mxCell id="kR4UCeC7xbuXBF_9jbmj-25" value="OTModelEntities" style="shape=folder;fontStyle=1;spacingTop=10;tabWidth=40;tabHeight=14;tabPosition=left;html=1;whiteSpace=wrap;" parent="1" vertex="1">
          <mxGeometry x="560" y="160" width="160" height="40" as="geometry" />
        </mxCell>
        <mxCell id="Lh5F1gDXbCP13nxI149C-15" style="edgeStyle=orthogonalEdgeStyle;rounded=0;orthogonalLoop=1;jettySize=auto;html=1;dashed=1;endArrow=open;endFill=0;" edge="1" parent="1" source="kR4UCeC7xbuXBF_9jbmj-26" target="kR4UCeC7xbuXBF_9jbmj-25">
          <mxGeometry relative="1" as="geometry" />
        </mxCell>
        <mxCell id="kR4UCeC7xbuXBF_9jbmj-26" value="OTDataStorage" style="shape=folder;fontStyle=1;spacingTop=10;tabWidth=40;tabHeight=14;tabPosition=left;html=1;whiteSpace=wrap;shadow=1;" parent="1" vertex="1">
          <mxGeometry x="560" y="40" width="160" height="40" as="geometry" />
        </mxCell>
        <mxCell id="Lh5F1gDXbCP13nxI149C-22" style="edgeStyle=orthogonalEdgeStyle;rounded=1;orthogonalLoop=1;jettySize=auto;html=1;dashed=1;endArrow=open;endFill=0;" edge="1" parent="1" source="kR4UCeC7xbuXBF_9jbmj-27" target="Lh5F1gDXbCP13nxI149C-19">
          <mxGeometry relative="1" as="geometry">
            <Array as="points">
              <mxPoint x="1000" y="180" />
              <mxPoint x="1000" y="540" />
            </Array>
          </mxGeometry>
        </mxCell>
        <mxCell id="kR4UCeC7xbuXBF_9jbmj-27" value="OTCADModelEntities" style="shape=folder;fontStyle=1;spacingTop=10;tabWidth=40;tabHeight=14;tabPosition=left;html=1;whiteSpace=wrap;shadow=1;" parent="1" vertex="1">
          <mxGeometry x="800" y="160" width="160" height="40" as="geometry" />
        </mxCell>
        <mxCell id="kR4UCeC7xbuXBF_9jbmj-30" style="edgeStyle=orthogonalEdgeStyle;rounded=1;orthogonalLoop=1;jettySize=auto;html=1;dashed=1;endArrow=open;endFill=0;" parent="1" source="kR4UCeC7xbuXBF_9jbmj-28" target="kR4UCeC7xbuXBF_9jbmj-29" edge="1">
          <mxGeometry relative="1" as="geometry" />
        </mxCell>
        <mxCell id="kR4UCeC7xbuXBF_9jbmj-28" value="OTRubberbandEngineAPI" style="shape=folder;fontStyle=1;spacingTop=10;tabWidth=40;tabHeight=14;tabPosition=left;html=1;whiteSpace=wrap;shadow=1;" parent="1" vertex="1">
          <mxGeometry x="560" y="400" width="160" height="40" as="geometry" />
        </mxCell>
        <mxCell id="Lh5F1gDXbCP13nxI149C-20" style="edgeStyle=orthogonalEdgeStyle;rounded=1;orthogonalLoop=1;jettySize=auto;html=1;dashed=1;endArrow=open;endFill=0;" edge="1" parent="1" source="kR4UCeC7xbuXBF_9jbmj-29" target="Lh5F1gDXbCP13nxI149C-19">
          <mxGeometry relative="1" as="geometry">
            <Array as="points">
              <mxPoint x="1000" y="420" />
              <mxPoint x="1000" y="540" />
            </Array>
          </mxGeometry>
        </mxCell>
        <mxCell id="kR4UCeC7xbuXBF_9jbmj-29" value="OTRubberbandEngine" style="shape=folder;fontStyle=1;spacingTop=10;tabWidth=40;tabHeight=14;tabPosition=left;html=1;whiteSpace=wrap;fillColor=#cce5ff;strokeColor=#36393d;shadow=1;" parent="1" vertex="1">
          <mxGeometry x="800" y="400" width="160" height="40" as="geometry" />
        </mxCell>
        <mxCell id="Lh5F1gDXbCP13nxI149C-3" value="BaseLibraries" style="shape=umlFrame;whiteSpace=wrap;html=1;pointerEvents=0;width=120;height=30;fillColor=#e1d5e7;strokeColor=#9673a6;align=center;" vertex="1" parent="1">
          <mxGeometry width="440" height="600" as="geometry" />
        </mxCell>
        <mxCell id="Lh5F1gDXbCP13nxI149C-6" value="Libraries" style="shape=umlFrame;whiteSpace=wrap;html=1;pointerEvents=0;fillColor=#e1d5e7;strokeColor=#9673a6;width=120;height=30;" vertex="1" parent="1">
          <mxGeometry x="520" width="520" height="600" as="geometry" />
        </mxCell>
        <mxCell id="Lh5F1gDXbCP13nxI149C-11" style="edgeStyle=orthogonalEdgeStyle;rounded=1;orthogonalLoop=1;jettySize=auto;html=1;dashed=1;endArrow=open;endFill=0;" edge="1" parent="1" source="Lh5F1gDXbCP13nxI149C-9" target="Lh5F1gDXbCP13nxI149C-10">
          <mxGeometry relative="1" as="geometry" />
        </mxCell>
        <mxCell id="Lh5F1gDXbCP13nxI149C-9" value="OTGui" style="shape=folder;fontStyle=1;spacingTop=10;tabWidth=40;tabHeight=14;tabPosition=left;html=1;whiteSpace=wrap;shadow=1;" vertex="1" parent="1">
          <mxGeometry x="240" y="160" width="160" height="40" as="geometry" />
        </mxCell>
        <mxCell id="Lh5F1gDXbCP13nxI149C-13" style="edgeStyle=orthogonalEdgeStyle;rounded=1;orthogonalLoop=1;jettySize=auto;html=1;dashed=1;endArrow=open;endFill=0;" edge="1" parent="1" source="Lh5F1gDXbCP13nxI149C-10" target="kR4UCeC7xbuXBF_9jbmj-15">
          <mxGeometry relative="1" as="geometry">
            <Array as="points">
              <mxPoint x="420" y="300" />
              <mxPoint x="420" y="240" />
              <mxPoint x="880" y="240" />
            </Array>
          </mxGeometry>
        </mxCell>
        <mxCell id="Lh5F1gDXbCP13nxI149C-18" style="edgeStyle=orthogonalEdgeStyle;rounded=1;orthogonalLoop=1;jettySize=auto;html=1;dashed=1;endArrow=open;endFill=0;" edge="1" parent="1" source="Lh5F1gDXbCP13nxI149C-10" target="kR4UCeC7xbuXBF_9jbmj-29">
          <mxGeometry relative="1" as="geometry">
            <Array as="points">
              <mxPoint x="420" y="300" />
              <mxPoint x="420" y="360" />
              <mxPoint x="880" y="360" />
            </Array>
          </mxGeometry>
        </mxCell>
        <mxCell id="Lh5F1gDXbCP13nxI149C-56" style="edgeStyle=orthogonalEdgeStyle;rounded=1;orthogonalLoop=1;jettySize=auto;html=1;dashed=1;endArrow=open;endFill=0;" edge="1" parent="1" source="Lh5F1gDXbCP13nxI149C-10" target="Lh5F1gDXbCP13nxI149C-54">
          <mxGeometry relative="1" as="geometry">
            <Array as="points">
              <mxPoint x="420" y="300" />
              <mxPoint x="420" y="540" />
            </Array>
          </mxGeometry>
        </mxCell>
        <mxCell id="Lh5F1gDXbCP13nxI149C-63" style="edgeStyle=orthogonalEdgeStyle;rounded=1;orthogonalLoop=1;jettySize=auto;html=1;dashed=1;endArrow=open;endFill=0;" edge="1" parent="1" source="Lh5F1gDXbCP13nxI149C-10" target="Lh5F1gDXbCP13nxI149C-62">
          <mxGeometry relative="1" as="geometry">
            <Array as="points">
              <mxPoint x="420" y="300" />
              <mxPoint x="420" y="360" />
              <mxPoint x="320" y="360" />
            </Array>
          </mxGeometry>
        </mxCell>
        <mxCell id="Lh5F1gDXbCP13nxI149C-10" value="OTWidgets" style="shape=folder;fontStyle=1;spacingTop=10;tabWidth=40;tabHeight=14;tabPosition=left;html=1;whiteSpace=wrap;fillColor=#cce5ff;strokeColor=#36393d;shadow=1;" vertex="1" parent="1">
          <mxGeometry x="240" y="280" width="160" height="40" as="geometry" />
        </mxCell>
        <mxCell id="Lh5F1gDXbCP13nxI149C-19" value="OTViewer" style="shape=folder;fontStyle=1;spacingTop=10;tabWidth=40;tabHeight=14;tabPosition=left;html=1;whiteSpace=wrap;fillColor=#cce5ff;strokeColor=#36393d;shadow=1;" vertex="1" parent="1">
          <mxGeometry x="800" y="520" width="160" height="40" as="geometry" />
        </mxCell>
        <mxCell id="Lh5F1gDXbCP13nxI149C-24" value="CoreServices" style="shape=umlFrame;whiteSpace=wrap;html=1;pointerEvents=0;fillColor=#e1d5e7;strokeColor=#9673a6;width=120;height=30;" vertex="1" parent="1">
          <mxGeometry y="680" width="240" height="840" as="geometry" />
        </mxCell>
        <mxCell id="Lh5F1gDXbCP13nxI149C-25" value="DefaultServices" style="shape=umlFrame;whiteSpace=wrap;html=1;pointerEvents=0;fillColor=#e1d5e7;strokeColor=#9673a6;width=120;height=30;shadow=0;" vertex="1" parent="1">
          <mxGeometry x="320" y="680" width="280" height="840" as="geometry" />
        </mxCell>
        <mxCell id="Lh5F1gDXbCP13nxI149C-26" value="Tools" style="shape=umlFrame;whiteSpace=wrap;html=1;pointerEvents=0;fillColor=#e1d5e7;strokeColor=#9673a6;width=120;height=30;" vertex="1" parent="1">
          <mxGeometry x="680" y="680" width="240" height="120" as="geometry" />
        </mxCell>
        <mxCell id="Lh5F1gDXbCP13nxI149C-27" value="Templates" style="shape=umlFrame;whiteSpace=wrap;html=1;pointerEvents=0;fillColor=#e1d5e7;strokeColor=#9673a6;width=120;height=30;" vertex="1" parent="1">
          <mxGeometry x="680" y="840" width="240" height="200" as="geometry" />
        </mxCell>
        <mxCell id="Lh5F1gDXbCP13nxI149C-28" value="OToolkit" style="shape=folder;fontStyle=1;spacingTop=10;tabWidth=40;tabHeight=14;tabPosition=left;html=1;whiteSpace=wrap;fillColor=#ffff88;strokeColor=#36393d;shadow=1;" vertex="1" parent="1">
          <mxGeometry x="720" y="720" width="160" height="40" as="geometry" />
        </mxCell>
        <mxCell id="Lh5F1gDXbCP13nxI149C-29" value="AuthorizationService" style="shape=folder;fontStyle=1;spacingTop=10;tabWidth=40;tabHeight=14;tabPosition=left;html=1;whiteSpace=wrap;fillColor=#ffff88;strokeColor=#36393d;shadow=1;" vertex="1" parent="1">
          <mxGeometry x="40" y="720" width="160" height="40" as="geometry" />
        </mxCell>
        <mxCell id="Lh5F1gDXbCP13nxI149C-30" value="CartesianMeshService" style="shape=folder;fontStyle=1;spacingTop=10;tabWidth=40;tabHeight=14;tabPosition=left;html=1;whiteSpace=wrap;fillColor=#ffff88;strokeColor=#36393d;shadow=1;" vertex="1" parent="1">
          <mxGeometry x="360" y="720" width="200" height="40" as="geometry" />
        </mxCell>
        <mxCell id="Lh5F1gDXbCP13nxI149C-31" value="FITTDService" style="shape=folder;fontStyle=1;spacingTop=10;tabWidth=40;tabHeight=14;tabPosition=left;html=1;whiteSpace=wrap;fillColor=#ffff88;strokeColor=#36393d;shadow=1;" vertex="1" parent="1">
          <mxGeometry x="360" y="800" width="200" height="40" as="geometry" />
        </mxCell>
        <mxCell id="Lh5F1gDXbCP13nxI149C-32" value="GetDPService" style="shape=folder;fontStyle=1;spacingTop=10;tabWidth=40;tabHeight=14;tabPosition=left;html=1;whiteSpace=wrap;fillColor=#ffff88;strokeColor=#36393d;shadow=1;" vertex="1" parent="1">
          <mxGeometry x="360" y="880" width="200" height="40" as="geometry" />
        </mxCell>
        <mxCell id="Lh5F1gDXbCP13nxI149C-33" value="GlobalDirectoryService" style="shape=folder;fontStyle=1;spacingTop=10;tabWidth=40;tabHeight=14;tabPosition=left;html=1;whiteSpace=wrap;fillColor=#ffff88;strokeColor=#36393d;shadow=1;" vertex="1" parent="1">
          <mxGeometry x="40" y="800" width="160" height="40" as="geometry" />
        </mxCell>
        <mxCell id="Lh5F1gDXbCP13nxI149C-34" value="LocalDirectoryService" style="shape=folder;fontStyle=1;spacingTop=10;tabWidth=40;tabHeight=14;tabPosition=left;html=1;whiteSpace=wrap;fillColor=#ffff88;strokeColor=#36393d;shadow=1;" vertex="1" parent="1">
          <mxGeometry x="40" y="1040" width="160" height="40" as="geometry" />
        </mxCell>
        <mxCell id="Lh5F1gDXbCP13nxI149C-35" value="GlobalSessionService" style="shape=folder;fontStyle=1;spacingTop=10;tabWidth=40;tabHeight=14;tabPosition=left;html=1;whiteSpace=wrap;fillColor=#ffff88;strokeColor=#36393d;shadow=1;" vertex="1" parent="1">
          <mxGeometry x="40" y="880" width="160" height="40" as="geometry" />
        </mxCell>
        <mxCell id="Lh5F1gDXbCP13nxI149C-36" value="LocalSessionService" style="shape=folder;fontStyle=1;spacingTop=10;tabWidth=40;tabHeight=14;tabPosition=left;html=1;whiteSpace=wrap;fillColor=#ffff88;strokeColor=#36393d;shadow=1;" vertex="1" parent="1">
          <mxGeometry x="40" y="1120" width="160" height="40" as="geometry" />
        </mxCell>
        <mxCell id="Lh5F1gDXbCP13nxI149C-37" value="ImportParameterizedDataService" style="shape=folder;fontStyle=1;spacingTop=10;tabWidth=40;tabHeight=14;tabPosition=left;html=1;whiteSpace=wrap;fillColor=#ffff88;strokeColor=#36393d;shadow=1;" vertex="1" parent="1">
          <mxGeometry x="360" y="960" width="200" height="40" as="geometry" />
        </mxCell>
        <mxCell id="Lh5F1gDXbCP13nxI149C-38" value="KrigingService" style="shape=folder;fontStyle=1;spacingTop=10;tabWidth=40;tabHeight=14;tabPosition=left;html=1;whiteSpace=wrap;fillColor=#ffff88;strokeColor=#36393d;shadow=1;" vertex="1" parent="1">
          <mxGeometry x="360" y="1040" width="200" height="40" as="geometry" />
        </mxCell>
        <mxCell id="Lh5F1gDXbCP13nxI149C-48" value="ModelService" style="shape=folder;fontStyle=1;spacingTop=10;tabWidth=40;tabHeight=14;tabPosition=left;html=1;whiteSpace=wrap;fillColor=#ffff88;strokeColor=#36393d;shadow=1;" vertex="1" parent="1">
          <mxGeometry x="360" y="1120" width="200" height="40" as="geometry" />
        </mxCell>
        <mxCell id="Lh5F1gDXbCP13nxI149C-49" value="ModelingService" style="shape=folder;fontStyle=1;spacingTop=10;tabWidth=40;tabHeight=14;tabPosition=left;html=1;whiteSpace=wrap;fillColor=#ffff88;strokeColor=#36393d;shadow=1;" vertex="1" parent="1">
          <mxGeometry x="360" y="1200" width="200" height="40" as="geometry" />
        </mxCell>
        <mxCell id="Lh5F1gDXbCP13nxI149C-50" value="LoggerService" style="shape=folder;fontStyle=1;spacingTop=10;tabWidth=40;tabHeight=14;tabPosition=left;html=1;whiteSpace=wrap;fillColor=#ffff88;strokeColor=#36393d;shadow=1;" vertex="1" parent="1">
          <mxGeometry x="40" y="960" width="160" height="40" as="geometry" />
        </mxCell>
        <mxCell id="Lh5F1gDXbCP13nxI149C-53" value="PHREECService" style="shape=folder;fontStyle=1;spacingTop=10;tabWidth=40;tabHeight=14;tabPosition=left;html=1;whiteSpace=wrap;fillColor=#ffff88;strokeColor=#36393d;shadow=1;" vertex="1" parent="1">
          <mxGeometry x="360" y="1280" width="200" height="40" as="geometry" />
        </mxCell>
        <mxCell id="Lh5F1gDXbCP13nxI149C-55" style="edgeStyle=orthogonalEdgeStyle;rounded=0;orthogonalLoop=1;jettySize=auto;html=1;dashed=1;endArrow=open;endFill=0;" edge="1" parent="1" source="Lh5F1gDXbCP13nxI149C-54" target="Lh5F1gDXbCP13nxI149C-19">
          <mxGeometry relative="1" as="geometry" />
        </mxCell>
        <mxCell id="Lh5F1gDXbCP13nxI149C-54" value="OTQwt" style="shape=folder;fontStyle=1;spacingTop=10;tabWidth=40;tabHeight=14;tabPosition=left;html=1;whiteSpace=wrap;fillColor=#cce5ff;strokeColor=#36393d;shadow=1;" vertex="1" parent="1">
          <mxGeometry x="560" y="520" width="160" height="40" as="geometry" />
        </mxCell>
        <mxCell id="Lh5F1gDXbCP13nxI149C-57" value="" style="rounded=1;whiteSpace=wrap;html=1;fillColor=#ffff88;strokeColor=#36393d;" vertex="1" parent="1">
          <mxGeometry x="720" y="1400" width="40" height="20" as="geometry" />
        </mxCell>
        <mxCell id="Lh5F1gDXbCP13nxI149C-58" value="Executed as OpenTwin Service" style="text;html=1;strokeColor=none;fillColor=none;align=left;verticalAlign=middle;whiteSpace=wrap;rounded=0;" vertex="1" parent="1">
          <mxGeometry x="770" y="1400" width="230" height="20" as="geometry" />
        </mxCell>
        <mxCell id="Lh5F1gDXbCP13nxI149C-59" value="RelayService" style="shape=folder;fontStyle=1;spacingTop=10;tabWidth=40;tabHeight=14;tabPosition=left;html=1;whiteSpace=wrap;fillColor=#ffff88;strokeColor=#36393d;shadow=1;" vertex="1" parent="1">
          <mxGeometry x="40" y="1200" width="160" height="40" as="geometry" />
        </mxCell>
        <mxCell id="Lh5F1gDXbCP13nxI149C-60" value="DefaultServiceTemplate" style="shape=folder;fontStyle=1;spacingTop=10;tabWidth=40;tabHeight=14;tabPosition=left;html=1;whiteSpace=wrap;fillColor=#ffff88;strokeColor=#36393d;shadow=1;" vertex="1" parent="1">
          <mxGeometry x="720" y="880" width="160" height="40" as="geometry" />
        </mxCell>
        <mxCell id="Lh5F1gDXbCP13nxI149C-61" value="UIPluginTemplate" style="shape=folder;fontStyle=1;spacingTop=10;tabWidth=40;tabHeight=14;tabPosition=left;html=1;whiteSpace=wrap;fillColor=#cce5ff;strokeColor=#36393d;shadow=1;" vertex="1" parent="1">
          <mxGeometry x="720" y="960" width="160" height="40" as="geometry" />
        </mxCell>
        <mxCell id="Lh5F1gDXbCP13nxI149C-62" value="OTUiPluginAPI" style="shape=folder;fontStyle=1;spacingTop=10;tabWidth=40;tabHeight=14;tabPosition=left;html=1;whiteSpace=wrap;fillColor=#cce5ff;strokeColor=#36393d;shadow=1;" vertex="1" parent="1">
          <mxGeometry x="240" y="400" width="160" height="40" as="geometry" />
        </mxCell>
        <mxCell id="Lh5F1gDXbCP13nxI149C-65" value="TetMeshService" style="shape=folder;fontStyle=1;spacingTop=10;tabWidth=40;tabHeight=14;tabPosition=left;html=1;whiteSpace=wrap;fillColor=#ffff88;strokeColor=#36393d;shadow=1;" vertex="1" parent="1">
          <mxGeometry x="360" y="1360" width="200" height="40" as="geometry" />
        </mxCell>
        <mxCell id="Lh5F1gDXbCP13nxI149C-66" value="uiCore" style="shape=folder;fontStyle=1;spacingTop=10;tabWidth=40;tabHeight=14;tabPosition=left;html=1;whiteSpace=wrap;fillColor=#cce5ff;strokeColor=#36393d;shadow=1;" vertex="1" parent="1">
          <mxGeometry x="40" y="400" width="160" height="40" as="geometry" />
        </mxCell>
        <mxCell id="Lh5F1gDXbCP13nxI149C-67" value="" style="shape=umlDestroy;whiteSpace=wrap;html=1;strokeWidth=3;targetShapes=umlLifeline;" vertex="1" parent="1">
          <mxGeometry x="170" y="410" width="30" height="30" as="geometry" />
        </mxCell>
        <mxCell id="Lh5F1gDXbCP13nxI149C-68" value="" style="shape=umlDestroy;whiteSpace=wrap;html=1;strokeWidth=3;targetShapes=umlLifeline;" vertex="1" parent="1">
          <mxGeometry x="730" y="1440" width="20" height="20" as="geometry" />
        </mxCell>
        <mxCell id="Lh5F1gDXbCP13nxI149C-69" value="Package will be removed/refactored" style="text;html=1;strokeColor=none;fillColor=none;align=left;verticalAlign=middle;whiteSpace=wrap;rounded=0;" vertex="1" parent="1">
          <mxGeometry x="769.5" y="1440" width="230" height="20" as="geometry" />
        </mxCell>
        <mxCell id="Lh5F1gDXbCP13nxI149C-70" value="VisualizationService" style="shape=folder;fontStyle=1;spacingTop=10;tabWidth=40;tabHeight=14;tabPosition=left;html=1;whiteSpace=wrap;fillColor=#ffff88;strokeColor=#36393d;shadow=1;" vertex="1" parent="1">
          <mxGeometry x="360" y="1440" width="200" height="40" as="geometry" />
        </mxCell>
      </root>
    </mxGraphModel>
  </diagram>
</mxfile>
